<?xml version="1.0" encoding="UTF-8" standalone="no"?>
<!-- Created with Inkscape (http://www.inkscape.org/) -->

<svg
   width="210mm"
   height="210mm"
   viewBox="0 0 210 210"
   version="1.1"
   id="svg5"
   xml:space="preserve"
   sodipodi:docname="logo.svg"
   inkscape:version="1.2.2 (b0a8486541, 2022-12-01)"
   inkscape:export-filename="logo.png"
   inkscape:export-xdpi="68.696732"
   inkscape:export-ydpi="68.696732"
   xmlns:inkscape="http://www.inkscape.org/namespaces/inkscape"
   xmlns:sodipodi="http://sodipodi.sourceforge.net/DTD/sodipodi-0.dtd"
   xmlns="http://www.w3.org/2000/svg"
   xmlns:svg="http://www.w3.org/2000/svg"><sodipodi:namedview
     id="namedview7"
     pagecolor="#ffffff"
     bordercolor="#000000"
     borderopacity="0.25"
     inkscape:showpageshadow="2"
     inkscape:pageopacity="0"
     inkscape:pagecheckerboard="true"
     inkscape:deskcolor="#d1d1d1"
     inkscape:document-units="mm"
     showgrid="false"
     inkscape:zoom="0.66224973"
     inkscape:cx="537.56156"
     inkscape:cy="475.65138"
     inkscape:window-width="1920"
     inkscape:window-height="1043"
     inkscape:window-x="0"
     inkscape:window-y="0"
     inkscape:window-maximized="1"
     inkscape:current-layer="svg5"><inkscape:grid
       type="xygrid"
       id="grid9" /><inkscape:page
       x="0"
       y="0"
       width="210"
       height="210"
       id="page3787"
       inkscape:export-filename="../logo.png"
       inkscape:export-xdpi="61.927616"
       inkscape:export-ydpi="61.927616" /><inkscape:page
       x="220"
       y="0"
       width="4.2333331"
       height="4.2333331"
       id="page3789" /></sodipodi:namedview><defs
     id="defs2"><clipPath
       clipPathUnits="userSpaceOnUse"
       id="clipPath1159"><path
         id="path1161"
         style="fill:#ffffff;stroke-width:0.269624"
         d="M 17.412471,29.104167 H 143.98336 c 2.31755,0 4.18331,1.865754 4.18331,4.183303 v 78.94589 c 0,2.31755 -1.86576,4.18331 -4.18331,4.18331 H 17.412471 c -2.317551,0 -4.183304,-1.86576 -4.183304,-4.18331 V 33.28747 c 0,-2.317549 1.865753,-4.183303 4.183304,-4.183303 z" /></clipPath><clipPath
       clipPathUnits="userSpaceOnUse"
       id="clipPath5663"><path
         id="path5665"
         style="fill:#ffffff;stroke-width:0.285181"
         d="m 23.52705,30.761885 113.96299,0.44579 c 2.77743,0.01087 5.01348,1.741643 5.01348,3.90503 v 73.694435 c 0,2.16338 -2.23605,3.91589 -5.01348,3.90502 L 23.52705,112.26637 c -2.777436,-0.0109 -5.013482,-1.74164 -5.013482,-3.90503 V 34.666915 c 0,-2.163387 2.236046,-3.915894 5.013482,-3.90503 z"
         sodipodi:nodetypes="sssssssss" /></clipPath></defs><g
     inkscape:label="old"
     inkscape:groupmode="layer"
     id="layer1"
     style="display:none"><g
       id="g1947"
       transform="matrix(1.0787462,0,0,1.1316017,-5.708365,-5.9880587)"
       inkscape:label="navy"><g
         id="g768"
         transform="translate(0,0.11334231)"><rect
           style="fill:#ffffff;stroke-width:0.240227"
           id="rect429"
           width="113.77083"
           height="6.614584"
           x="34.395836"
           y="25.069271"
           ry="0"
           rx="0" /><path
           id="rect649"
           style="fill:#ffffff;stroke-width:0.341575"
           d="m 17.197916,28.376563 5.291667,-3.307293 v 6.614584 z"
           sodipodi:nodetypes="ccccc" /><path
           id="path748"
           style="fill:#ffffff;stroke-width:0.341575"
           d="M 30.427082,28.376563 25.135416,25.06927 v 6.614584 z"
           sodipodi:nodetypes="ccccc" /></g><g
         id="g1144"><g
           id="g1124"><path
             id="rect115"
             style="fill:#162d4f;fill-opacity:1;stroke-width:0.264583"
             d="M 18.954964,5.2916665 H 141.90606 c 7.56947,0 13.6633,6.0938305 13.6633,13.6632975 v 91.632986 c 0,7.56947 -6.09383,13.6633 -13.6633,13.6633 H 18.954964 c -7.569467,0 -13.6632975,-6.09383 -13.6632975,-13.6633 V 18.954964 c 0,-7.569467 6.0938305,-13.6632975 13.6632975,-13.6632975 z" /><path
             id="path849"
             style="fill:#ffffff;stroke-width:0.237717"
             d="m 23.8125,18.520833 c 0,2.922507 -2.36916,5.291667 -5.291667,5.291667 -2.922507,0 -5.291667,-2.36916 -5.291667,-5.291667 0,-2.922507 4.228244,-3.96875 5.291667,-7.9375 1.063424,3.96875 5.291667,5.014993 5.291667,7.9375 z"
             sodipodi:nodetypes="ssscs" /><g
             id="g974"
             transform="matrix(1.2999995,0,0,1.8199998,-2.9765489,-12.77937)"><path
               id="rect956"
               style="fill:#ffffff;stroke-width:0.264582"
               d="m 25.135416,13.229167 h 9.260418 v 1.322916 h -9.260418 z" /><path
               id="rect962"
               style="fill:#ffffff;stroke-width:0.264582"
               d="m 25.135416,15.875 h 9.260418 v 1.322916 h -9.260418 z" /><path
               id="rect964"
               style="fill:#ffffff;stroke-width:0.264582"
               d="m 25.135416,18.520834 h 9.260418 v 1.322916 h -9.260418 z" /></g><g
             id="g982"
             transform="matrix(1.0011125,0.75891011,-1.2114473,1.2292068,-29.146243,-137.37082)"
             style="fill:#ff0000"><path
               id="rect978"
               style="fill:#ff0000;stroke-width:0.313059"
               d="m 184.41463,7.937499 h 1.85208 v 6.614583 h -1.85208 z" /><path
               id="path4155"
               style="fill:#ff0000;stroke-width:0.313059"
               d="m 180.89326,10.111586 -0.26808,1.308982 9.1629,0.957427 0.26808,-1.308982 z" /></g></g></g><path
         id="rect1043"
         style="fill:#ffffff;stroke-width:0.269623"
         d="M 17.412471,29.104166 H 143.98336 c 2.31755,0 4.18331,1.865754 4.18331,4.183304 v 78.94589 c 0,2.31755 -1.86576,4.18331 -4.18331,4.18331 H 17.412471 c -2.317551,0 -4.183304,-1.86576 -4.183304,-4.18331 V 33.28747 c 0,-2.31755 1.865753,-4.183304 4.183304,-4.183304 z" /><rect
         style="fill:#aaccff;stroke-width:0.264583"
         id="rect1097"
         width="143.35075"
         height="27.518829"
         x="9.4461088"
         y="25.182611"
         ry="0.066146873"
         clip-path="url(#clipPath1159)" /><g
         id="g1178"
         transform="translate(12.22405,0.13911915)"
         inkscape:label="g1178"><rect
           style="fill:#ffffff;stroke-width:0.264583"
           id="rect1167"
           width="26.217659"
           height="17.932505"
           x="103.13084"
           y="43.596069"
           ry="3.5186045" /><rect
           style="fill:#ffffff;stroke-width:0.264583"
           id="rect1171"
           width="26.217659"
           height="17.932505"
           x="45.691078"
           y="43.596069"
           ry="3.5186045" /><rect
           style="fill:#ffffff;stroke-width:0.264583"
           id="rect1173"
           width="26.217659"
           height="17.932505"
           x="74.410957"
           y="43.596069"
           ry="3.5186045" /></g><rect
         style="fill:#e6e6e6;stroke-width:0.264583"
         id="rect1234"
         width="24.026049"
         height="5.2715492"
         x="20.104017"
         y="61.66769" /><rect
         style="fill:#e6e6e6;stroke-width:0.264583"
         id="rect1236"
         width="24.026049"
         height="5.2715492"
         x="20.104017"
         y="69.704102" /><rect
         style="fill:#e6e6e6;stroke-width:0.264583"
         id="rect1238"
         width="11.069569"
         height="4.3720365"
         x="33.060497"
         y="78.481705"
         ry="2.1860182" /></g><g
       id="g5015"
       transform="matrix(1.0787462,0,0,1.1316017,-8.8788404,4.8116506)"
       inkscape:label="green"><g
         id="g2005"
         transform="translate(25.135417,23.765304)"
         inkscape:label="g2005"><g
           id="g1985"><g
             id="g1983"><path
               id="path1965"
               style="fill:#2ca075;fill-opacity:1;stroke-width:0.264583"
               d="M 18.954964,5.2916665 H 141.90606 c 7.56947,0 13.6633,6.0938305 13.6633,13.6632975 v 91.632986 c 0,7.56947 -6.09383,13.6633 -13.6633,13.6633 H 18.954964 c -7.569467,0 -13.6632975,-6.09383 -13.6632975,-13.6633 V 18.954964 c 0,-7.569467 6.0938305,-13.6632975 13.6632975,-13.6632975 z" /><path
               id="path1967"
               style="fill:#ffffff;stroke-width:0.237717"
               d="m 23.8125,18.520833 c 0,2.922507 -2.36916,5.291667 -5.291667,5.291667 -2.922507,0 -5.291667,-2.36916 -5.291667,-5.291667 0,-2.922507 4.228244,-3.96875 5.291667,-7.9375 1.063424,3.96875 5.291667,5.014993 5.291667,7.9375 z"
               sodipodi:nodetypes="ssscs" /><g
               id="g1975"
               transform="matrix(1.2999995,0,0,1.8199998,-2.9765489,-12.77937)"><path
                 id="path1969"
                 style="fill:#ffffff;stroke-width:0.264582"
                 d="m 25.135416,13.229167 h 9.260418 v 1.322916 h -9.260418 z" /><path
                 id="path1971"
                 style="fill:#ffffff;stroke-width:0.264582"
                 d="m 25.135416,15.875 h 9.260418 v 1.322916 h -9.260418 z" /><path
                 id="path1973"
                 style="fill:#ffffff;stroke-width:0.264582"
                 d="m 25.135416,18.520834 h 9.260418 v 1.322916 h -9.260418 z" /></g></g></g><path
           id="path1987"
           style="fill:#ffffff;stroke-width:0.269623"
           d="M 17.412471,29.104166 H 143.98336 c 2.31755,0 4.18331,1.865754 4.18331,4.183304 v 78.94589 c 0,2.31755 -1.86576,4.18331 -4.18331,4.18331 H 17.412471 c -2.317551,0 -4.183304,-1.86576 -4.183304,-4.18331 V 33.28747 c 0,-2.31755 1.865753,-4.183304 4.183304,-4.183304 z" /><rect
           style="fill:#aaccff;stroke-width:0.264583"
           id="rect1989"
           width="143.35075"
           height="27.518829"
           x="9.4461088"
           y="25.182611"
           ry="0.066146873"
           clip-path="url(#clipPath1159)" /><g
           id="g1997"
           transform="translate(12.22405,0.13911915)"><rect
             style="fill:#ffffff;stroke-width:0.264583"
             id="rect1991"
             width="26.217659"
             height="17.932505"
             x="103.13084"
             y="43.596069"
             ry="3.5186045" /><rect
             style="fill:#ffffff;stroke-width:0.264583"
             id="rect1993"
             width="26.217659"
             height="17.932505"
             x="45.691078"
             y="43.596069"
             ry="3.5186045" /><rect
             style="fill:#ffffff;stroke-width:0.264583"
             id="rect1995"
             width="26.217659"
             height="17.932505"
             x="74.410957"
             y="43.596069"
             ry="3.5186045" /></g><rect
           style="fill:#e6e6e6;stroke-width:0.264583"
           id="rect1999"
           width="24.026049"
           height="5.2715492"
           x="20.104017"
           y="61.66769" /><rect
           style="fill:#e6e6e6;stroke-width:0.264583"
           id="rect2001"
           width="24.026049"
           height="5.2715492"
           x="20.104017"
           y="69.704102" /><rect
           style="fill:#e6e6e6;stroke-width:0.264583"
           id="rect2003"
           width="11.069569"
           height="4.3720365"
           x="33.060497"
           y="78.481705"
           ry="2.1860182" /></g></g></g><g
     inkscape:groupmode="layer"
     id="layer4"
     inkscape:label="Layer 2" /><g
     id="g13311"
     transform="matrix(0.90909059,0,0,0.90909059,7.202665,4.1112415)"><g
       id="g6011"
       transform="matrix(1.3185885,0,0,1.4091457,72.849805,78.523934)"
       style="display:inline"
       inkscape:label="OK"><g
         id="g6003"
         transform="matrix(1.3115849,0,0,1.225786,-59.941291,-47.344551)"
         inkscape:label="web"><rect
           style="fill:#ffffff;fill-opacity:1;stroke-width:0.229805"
           id="rect5987"
           width="107.45881"
           height="77.638618"
           x="11.400962"
           y="30.626863"
           ry="7.6768155" /><rect
           style="fill:#aaccff;fill-opacity:1;stroke-width:0.224289"
           id="rect5991"
           width="107.55315"
           height="25.135548"
           x="11.400962"
           y="22.583488"
           ry="0"
           clip-path="none" /><rect
           style="fill:#ffffff;fill-opacity:1;stroke-width:0.134664"
           id="rect5993"
           width="28.845886"
           height="19.386772"
           x="83.843575"
           y="38.02565"
           ry="3.6033337" /><rect
           style="fill:#ffffff;fill-opacity:1;stroke-width:0.134664"
           id="rect5995"
           width="28.845886"
           height="19.386772"
           x="51.358555"
           y="38.02565"
           ry="3.6033337" /></g><g
         id="g11182"
         transform="matrix(1.0976471,0,0,1.0661635,-2.7278723,-1.7938512)"><path
           id="rect7292"
           style="display:inline;fill:#a9e387;stroke-width:0.217516"
           d="M -38.500616,30.934219 H 89.90254 V 49.728992 H -38.500616 Z" /><path
           id="rect7710"
           style="display:inline;fill:#f9dea0;stroke-width:0.217516"
           d="M -38.500616,49.728988 H 89.90254 V 68.523761 H -38.500616 Z" /><path
           id="rect8743"
           style="display:inline;fill:#f1ad9c;stroke-width:0.217516"
           d="M -38.500616,68.523761 H 89.90254 V 87.31854 H -38.500616 Z" /><path
           id="path13440"
           style="display:inline;fill:#ffffff;stroke-width:0.217516"
           d="M -38.505728,12.139439 H 89.897428 V 30.934212 H -38.505728 Z" /></g><path
         id="path10808"
         style="display:inline;fill:#008000;stroke-width:0.254398"
         d="m -26.448958,43.20736 c 0,3.097176 -2.560311,5.607933 -5.718615,5.607933 -3.158303,0 -5.718614,-2.510757 -5.718614,-5.607933 0,-3.097177 4.56939,-4.205951 5.718614,-8.411901 1.149225,4.20595 5.718615,5.314724 5.718615,8.411901 z"
         sodipodi:nodetypes="ssscs" /><path
         id="path10811"
         style="display:inline;fill:#aa8800;stroke-width:0.254398"
         d="m -26.448958,62.646514 c 0,3.097176 -2.560311,5.607934 -5.718615,5.607934 -3.158303,0 -5.718614,-2.510758 -5.718614,-5.607934 0,-3.097176 4.56939,-4.20595 5.718614,-8.4119 1.149225,4.20595 5.718615,5.314724 5.718615,8.4119 z"
         sodipodi:nodetypes="ssscs" /><path
         id="path10813"
         style="display:inline;fill:#800000;stroke-width:0.254398"
         d="m -26.448958,82.085669 c 0,3.097176 -2.560311,5.607934 -5.718615,5.607934 -3.158303,0 -5.718614,-2.510758 -5.718614,-5.607934 0,-3.097176 4.56939,-4.20595 5.718614,-8.4119 1.149225,4.20595 5.718615,5.314724 5.718615,8.4119 z"
         sodipodi:nodetypes="ssscs" /><path
         d="M 85.411102,65.885892 78.96095,54.986687 c -0.895482,-1.512952 -2.361174,-1.512952 -3.257849,0 l -6.451402,10.899205 c -0.895453,1.513976 0.0087,2.751197 2.01173,2.751197 h 12.135942 c 2.002016,0 2.907184,-1.237221 2.011731,-2.751197 z m -9.294276,-8.524196 h 2.429149 v 5.12518 h -2.429149 z m 2.732462,8.83068 c 0,0.352625 -0.340733,0.640649 -0.758326,0.640649 h -1.516695 c -0.418683,0 -0.759561,-0.288044 -0.759561,-0.640649 V 64.92236 c 0,-0.352626 0.340747,-0.64065 0.759561,-0.64065 h 1.516695 c 0.417317,0 0.758326,0.288044 0.758326,0.64065 z"
         id="path5979"
         style="display:inline;fill:#aa8800;fill-opacity:1;stroke-width:1.11522"
         inkscape:label="WARN" /><g
         id="g5985"
         transform="matrix(1.484672,1.1036973,-1.796603,1.7876587,-177.63632,-143.97816)"
         style="display:inline;fill:#800000;fill-opacity:1"
         inkscape:label="ERROR"><path
           id="path5981"
           style="fill:#800000;fill-opacity:1;stroke-width:0.313059"
           d="m 184.41463,7.937499 h 1.85208 v 6.614583 h -1.85208 z" /><path
           id="path5983"
           style="fill:#800000;fill-opacity:1;stroke-width:0.313059"
           d="m 180.89326,10.111586 -0.26808,1.308982 9.1629,0.957427 0.26808,-1.308982 z" /></g><g
         id="g6009"
         transform="matrix(1.443836,1.2238364,-1.7471874,1.9822481,-167.94934,-207.91039)"
         style="display:inline;fill:#008000;fill-opacity:1"
         inkscape:label="OK"><path
           id="path6005"
           style="fill:#008000;fill-opacity:1;stroke-width:0.313059"
           d="m 180.71045,13.229166 h 5.55625 v 1.322917 h -5.55625 z" /><path
           id="path6007"
           style="fill:#008000;fill-opacity:1;stroke-width:0.313059"
           d="m 184.41463,7.937499 h 1.85208 v 6.614583 h -1.85208 z" /></g></g><g
       id="g5977"
       transform="matrix(1.2637089,0,0,1.3256271,76.619716,71.112293)"
       style="display:inline"
       inkscape:label="Chrome"><g
         id="g5975"
         transform="matrix(1.1169113,0,0,1.1169113,-2.7591535,-13.824762)"><path
           id="rect5963"
           style="display:inline;fill:#3479bc;stroke-width:0.165343"
           d="m -40.691972,-29.916317 c -5.594985,0 -10.099263,4.504245 -10.099263,10.09923 V 101.81809 c 0,5.59499 4.504278,10.09923 10.099263,10.09923 H 87.892582 c 5.594986,0 10.099264,-4.50424 10.099264,-10.09923 V -19.817087 c 0,-5.594985 -4.504278,-10.09923 -10.099264,-10.09923 z m 7.963848,33.9286251 H 79.928734 c 5.263275,0 9.498846,4.196809 9.500595,9.4100169 l 0.02733,81.4464 c 0.0017,5.213205 -4.23732,9.410015 -9.500595,9.410015 H -32.700793 c -5.263274,0 -9.498845,-4.19681 -9.500594,-9.410015 l -0.02733,-81.4464 c -0.0017,-5.2132079 3.955941,-9.4100169 9.500594,-9.4100169 z"
           sodipodi:nodetypes="ssssssssssssssssscs" /><path
           id="path5965"
           style="display:inline;fill:#ffffff;stroke-width:0.394683"
           d="m -24.02479,-11.050613 c 0,4.8522529 -3.933528,8.7857811 -8.785781,8.7857811 -4.852253,0 -8.785781,-3.9335282 -8.785781,-8.7857811 0,-4.852253 7.020175,-6.589336 8.785781,-13.178671 1.765608,6.589335 8.785781,8.326418 8.785781,13.178671 z"
           sodipodi:nodetypes="ssscs" /><g
           id="g5973"
           transform="matrix(2.1583957,0,0,3.0217548,-68.502782,-63.018497)"><path
             id="path5967"
             style="fill:#ffffff;stroke-width:0.264582"
             d="m 25.135416,13.229167 h 9.260418 v 1.322916 h -9.260418 z" /><path
             id="path5969"
             style="fill:#ffffff;stroke-width:0.264582"
             d="m 25.135416,15.875 h 9.260418 v 1.322916 h -9.260418 z" /><path
             id="path5971"
             style="fill:#ffffff;stroke-width:0.264582"
             d="m 25.135416,18.520834 h 9.260418 v 1.322916 h -9.260418 z" /></g></g></g></g></svg>
