<?xml version="1.0" encoding="UTF-8" standalone="no"?>
<!-- Created with Inkscape (http://www.inkscape.org/) -->

<svg
   width="210mm"
   height="210mm"
   viewBox="0 0 210 210"
   version="1.1"
   id="svg5"
   xml:space="preserve"
   sodipodi:docname="site-logo.svg"
   inkscape:version="1.2.2 (b0a8486541, 2022-12-01)"
   xmlns:inkscape="http://www.inkscape.org/namespaces/inkscape"
   xmlns:sodipodi="http://sodipodi.sourceforge.net/DTD/sodipodi-0.dtd"
   xmlns="http://www.w3.org/2000/svg"
   xmlns:svg="http://www.w3.org/2000/svg"><sodipodi:namedview
     id="namedview7"
     pagecolor="#ffffff"
     bordercolor="#000000"
     borderopacity="0.25"
     inkscape:showpageshadow="2"
     inkscape:pageopacity="0"
     inkscape:pagecheckerboard="true"
     inkscape:deskcolor="#d1d1d1"
     inkscape:document-units="mm"
     showgrid="false"
     inkscape:zoom="0.49654689"
     inkscape:cx="999.90556"
     inkscape:cy="401.77474"
     inkscape:window-width="1866"
     inkscape:window-height="1016"
     inkscape:window-x="54"
     inkscape:window-y="27"
     inkscape:window-maximized="1"
     inkscape:current-layer="g2063"><inkscape:grid
       type="xygrid"
       id="grid9" /><inkscape:page
       x="0"
       y="0"
       width="210"
       height="210"
       id="page3787" /><inkscape:page
       x="220"
       y="0"
       width="4.2333331"
       height="4.2333331"
       id="page3789" /></sodipodi:namedview><defs
     id="defs2"><clipPath
       clipPathUnits="userSpaceOnUse"
       id="clipPath1159"><path
         id="path1161"
         style="fill:#ffffff;stroke-width:0.269624"
         d="M 17.412471,29.104167 H 143.98336 c 2.31755,0 4.18331,1.865754 4.18331,4.183303 v 78.94589 c 0,2.31755 -1.86576,4.18331 -4.18331,4.18331 H 17.412471 c -2.317551,0 -4.183304,-1.86576 -4.183304,-4.18331 V 33.28747 c 0,-2.317549 1.865753,-4.183303 4.183304,-4.183303 z" /></clipPath></defs><g
     inkscape:label="Layer 1"
     inkscape:groupmode="layer"
     id="layer1"><g
       id="g1947"
       transform="matrix(1.0787462,0,0,1.1316017,-5.708365,-5.9880587)"><g
         id="g768"
         transform="translate(0,0.11334231)"><rect
           style="fill:#ffffff;stroke-width:0.240227"
           id="rect429"
           width="113.77083"
           height="6.614584"
           x="34.395836"
           y="25.069271"
           ry="0"
           rx="0" /><path
           id="rect649"
           style="fill:#ffffff;stroke-width:0.341575"
           d="m 17.197916,28.376563 5.291667,-3.307293 v 6.614584 z"
           sodipodi:nodetypes="ccccc" /><path
           id="path748"
           style="fill:#ffffff;stroke-width:0.341575"
           d="M 30.427082,28.376563 25.135416,25.06927 v 6.614584 z"
           sodipodi:nodetypes="ccccc" /></g><g
         id="g1144"><g
           id="g1124"><path
             id="rect115"
             style="fill:#162d4f;fill-opacity:1;stroke-width:0.264583"
             d="M 18.954964,5.2916665 H 141.90606 c 7.56947,0 13.6633,6.0938305 13.6633,13.6632975 v 91.632986 c 0,7.56947 -6.09383,13.6633 -13.6633,13.6633 H 18.954964 c -7.569467,0 -13.6632975,-6.09383 -13.6632975,-13.6633 V 18.954964 c 0,-7.569467 6.0938305,-13.6632975 13.6632975,-13.6632975 z" /><path
             id="path849"
             style="fill:#ffffff;stroke-width:0.237717"
             d="m 23.8125,18.520833 c 0,2.922507 -2.36916,5.291667 -5.291667,5.291667 -2.922507,0 -5.291667,-2.36916 -5.291667,-5.291667 0,-2.922507 4.228244,-3.96875 5.291667,-7.9375 1.063424,3.96875 5.291667,5.014993 5.291667,7.9375 z"
             sodipodi:nodetypes="ssscs" /><g
             id="g974"
             transform="matrix(1.2999995,0,0,1.8199998,-2.9765489,-12.77937)"><path
               id="rect956"
               style="fill:#ffffff;stroke-width:0.264582"
               d="m 25.135416,13.229167 h 9.260418 v 1.322916 h -9.260418 z" /><path
               id="rect962"
               style="fill:#ffffff;stroke-width:0.264582"
               d="m 25.135416,15.875 h 9.260418 v 1.322916 h -9.260418 z" /><path
               id="rect964"
               style="fill:#ffffff;stroke-width:0.264582"
               d="m 25.135416,18.520834 h 9.260418 v 1.322916 h -9.260418 z" /></g><g
             id="g982"
             transform="matrix(1.0011125,0.75891011,-1.2114473,1.2292068,-29.146243,-137.37082)"
             style="fill:#ff0000"><path
               id="rect978"
               style="fill:#ff0000;stroke-width:0.313059"
               d="m 184.41463,7.937499 h 1.85208 v 6.614583 h -1.85208 z" /><path
               id="path4155"
               style="fill:#ff0000;stroke-width:0.313059"
               d="m 180.89326,10.111586 -0.26808,1.308982 9.1629,0.957427 0.26808,-1.308982 z" /></g></g></g><path
         id="rect1043"
         style="fill:#ffffff;stroke-width:0.269623"
         d="M 17.412471,29.104166 H 143.98336 c 2.31755,0 4.18331,1.865754 4.18331,4.183304 v 78.94589 c 0,2.31755 -1.86576,4.18331 -4.18331,4.18331 H 17.412471 c -2.317551,0 -4.183304,-1.86576 -4.183304,-4.18331 V 33.28747 c 0,-2.31755 1.865753,-4.183304 4.183304,-4.183304 z" /><rect
         style="fill:#aaccff;stroke-width:0.264583"
         id="rect1097"
         width="143.35075"
         height="27.518829"
         x="9.4461088"
         y="25.182611"
         ry="0.066146873"
         clip-path="url(#clipPath1159)" /><g
         id="g1178"
         transform="translate(12.22405,0.13911915)"><rect
           style="fill:#ffffff;stroke-width:0.264583"
           id="rect1167"
           width="26.217659"
           height="17.932505"
           x="103.13084"
           y="43.596069"
           ry="3.5186045" /><rect
           style="fill:#ffffff;stroke-width:0.264583"
           id="rect1171"
           width="26.217659"
           height="17.932505"
           x="45.691078"
           y="43.596069"
           ry="3.5186045" /><rect
           style="fill:#ffffff;stroke-width:0.264583"
           id="rect1173"
           width="26.217659"
           height="17.932505"
           x="74.410957"
           y="43.596069"
           ry="3.5186045" /></g><rect
         style="fill:#e6e6e6;stroke-width:0.264583"
         id="rect1234"
         width="24.026049"
         height="5.2715492"
         x="20.104017"
         y="61.66769" /><rect
         style="fill:#e6e6e6;stroke-width:0.264583"
         id="rect1236"
         width="24.026049"
         height="5.2715492"
         x="20.104017"
         y="69.704102" /><rect
         style="fill:#e6e6e6;stroke-width:0.264583"
         id="rect1238"
         width="11.069569"
         height="4.3720365"
         x="33.060497"
         y="78.481705"
         ry="2.1860182" /></g></g><g
     id="g5015"
     transform="matrix(1.0787462,0,0,1.1316017,-8.8788405,4.8116505)"><g
       id="g2005"
       transform="translate(25.135417,23.765304)"><g
         id="g1985"><g
           id="g1983"><path
             id="path1965"
             style="fill:#2ca075;fill-opacity:1;stroke-width:0.264583"
             d="M 18.954964,5.2916665 H 141.90606 c 7.56947,0 13.6633,6.0938305 13.6633,13.6632975 v 91.632986 c 0,7.56947 -6.09383,13.6633 -13.6633,13.6633 H 18.954964 c -7.569467,0 -13.6632975,-6.09383 -13.6632975,-13.6633 V 18.954964 c 0,-7.569467 6.0938305,-13.6632975 13.6632975,-13.6632975 z" /><path
             id="path1967"
             style="fill:#ffffff;stroke-width:0.237717"
             d="m 23.8125,18.520833 c 0,2.922507 -2.36916,5.291667 -5.291667,5.291667 -2.922507,0 -5.291667,-2.36916 -5.291667,-5.291667 0,-2.922507 4.228244,-3.96875 5.291667,-7.9375 1.063424,3.96875 5.291667,5.014993 5.291667,7.9375 z"
             sodipodi:nodetypes="ssscs" /><g
             id="g1975"
             transform="matrix(1.2999995,0,0,1.8199998,-2.9765489,-12.77937)"><path
               id="path1969"
               style="fill:#ffffff;stroke-width:0.264582"
               d="m 25.135416,13.229167 h 9.260418 v 1.322916 h -9.260418 z" /><path
               id="path1971"
               style="fill:#ffffff;stroke-width:0.264582"
               d="m 25.135416,15.875 h 9.260418 v 1.322916 h -9.260418 z" /><path
               id="path1973"
               style="fill:#ffffff;stroke-width:0.264582"
               d="m 25.135416,18.520834 h 9.260418 v 1.322916 h -9.260418 z" /></g></g></g><path
         id="path1987"
         style="fill:#ffffff;stroke-width:0.269623"
         d="M 17.412471,29.104166 H 143.98336 c 2.31755,0 4.18331,1.865754 4.18331,4.183304 v 78.94589 c 0,2.31755 -1.86576,4.18331 -4.18331,4.18331 H 17.412471 c -2.317551,0 -4.183304,-1.86576 -4.183304,-4.18331 V 33.28747 c 0,-2.31755 1.865753,-4.183304 4.183304,-4.183304 z" /><rect
         style="fill:#aaccff;stroke-width:0.264583"
         id="rect1989"
         width="143.35075"
         height="27.518829"
         x="9.4461088"
         y="25.182611"
         ry="0.066146873"
         clip-path="url(#clipPath1159)" /><g
         id="g1997"
         transform="translate(12.22405,0.13911915)"><rect
           style="fill:#ffffff;stroke-width:0.264583"
           id="rect1991"
           width="26.217659"
           height="17.932505"
           x="103.13084"
           y="43.596069"
           ry="3.5186045" /><rect
           style="fill:#ffffff;stroke-width:0.264583"
           id="rect1993"
           width="26.217659"
           height="17.932505"
           x="45.691078"
           y="43.596069"
           ry="3.5186045" /><rect
           style="fill:#ffffff;stroke-width:0.264583"
           id="rect1995"
           width="26.217659"
           height="17.932505"
           x="74.410957"
           y="43.596069"
           ry="3.5186045" /></g><rect
         style="fill:#e6e6e6;stroke-width:0.264583"
         id="rect1999"
         width="24.026049"
         height="5.2715492"
         x="20.104017"
         y="61.66769" /><rect
         style="fill:#e6e6e6;stroke-width:0.264583"
         id="rect2001"
         width="24.026049"
         height="5.2715492"
         x="20.104017"
         y="69.704102" /><rect
         style="fill:#e6e6e6;stroke-width:0.264583"
         id="rect2003"
         width="11.069569"
         height="4.3720365"
         x="33.060497"
         y="78.481705"
         ry="2.1860182" /></g><path
       d="m 171.91068,44.536038 -4.34933,-7.494371 c -0.60383,-1.040317 -1.59214,-1.040317 -2.19677,0 l -4.35017,7.494371 c -0.6038,1.04102 0.006,1.891742 1.35651,1.891742 h 8.18325 c 1.34996,0 1.96031,-0.850722 1.35651,-1.891742 z m -6.26712,-5.861298 h 1.63797 v 3.52411 h -1.63797 z m 1.84249,6.072038 c 0,0.242468 -0.22975,0.440515 -0.51133,0.440515 h -1.02271 c -0.28232,0 -0.51217,-0.198061 -0.51217,-0.440515 v -0.873272 c 0,-0.242468 0.22976,-0.440515 0.51217,-0.440515 h 1.02271 c 0.28139,0 0.51133,0.198061 0.51133,0.440515 z"
       id="path3777"
       style="fill:#ffff00;stroke-width:0.759379" /></g><g
     id="g2063"
     transform="matrix(1.0578676,0,0,1.1316017,41.363779,69.397077)"><g
       id="g2043"
       transform="matrix(1.0197365,0,0,1,0.77171741,0)"><g
         id="g2041"><path
           id="path2023"
           style="fill:#3771c8;stroke-width:0.264583"
           d="M 18.954964,5.2916665 H 141.90606 c 7.56947,0 13.6633,6.0938305 13.6633,13.6632975 v 91.632986 c 0,7.56947 -6.09383,13.6633 -13.6633,13.6633 H 18.954964 c -7.569467,0 -13.6632975,-6.09383 -13.6632975,-13.6633 V 18.954964 c 0,-7.569467 6.0938305,-13.6632975 13.6632975,-13.6632975 z" /><path
           id="path2025"
           style="fill:#ffffff;stroke-width:0.237717"
           d="m 23.8125,18.520833 c 0,2.922507 -2.36916,5.291667 -5.291667,5.291667 -2.922507,0 -5.291667,-2.36916 -5.291667,-5.291667 0,-2.922507 4.228244,-3.96875 5.291667,-7.9375 1.063424,3.96875 5.291667,5.014993 5.291667,7.9375 z"
           sodipodi:nodetypes="ssscs" /><g
           id="g2033"
           transform="matrix(1.2999995,0,0,1.8199998,-2.9765489,-12.77937)"><path
             id="path2027"
             style="fill:#ffffff;stroke-width:0.264582"
             d="m 25.135416,13.229167 h 9.260418 v 1.322916 h -9.260418 z" /><path
             id="path2029"
             style="fill:#ffffff;stroke-width:0.264582"
             d="m 25.135416,15.875 h 9.260418 v 1.322916 h -9.260418 z" /><path
             id="path2031"
             style="fill:#ffffff;stroke-width:0.264582"
             d="m 25.135416,18.520834 h 9.260418 v 1.322916 h -9.260418 z" /></g><g
           id="g2039"
           transform="matrix(0.87800467,0.75891011,-1.0624744,1.2292068,-7.3978211,-137.37082)"><path
             id="path2035"
             style="fill:#00ff00;stroke-width:0.313059"
             d="m 180.71045,13.229166 h 5.55625 v 1.322917 h -5.55625 z" /><path
             id="path2037"
             style="fill:#00ff00;stroke-width:0.313059"
             d="m 184.41463,7.937499 h 1.85208 v 6.614583 h -1.85208 z" /></g></g></g><path
       id="path2045"
       style="fill:#ffffff;stroke-width:0.272271"
       d="M 18.527849,29.104166 H 147.5968 c 2.36329,0 4.26587,1.865754 4.26587,4.183304 v 78.94589 c 0,2.31755 -1.90258,4.18331 -4.26587,4.18331 H 18.527849 c -2.363291,0 -4.265868,-1.86576 -4.265868,-4.18331 V 33.28747 c 0,-2.31755 1.902577,-4.183304 4.265868,-4.183304 z" /><rect
       style="fill:#aaccff;stroke-width:0.264583"
       id="rect2047"
       width="143.35075"
       height="27.518829"
       x="9.4461088"
       y="25.182611"
       ry="0.066146873"
       clip-path="url(#clipPath1159)"
       transform="matrix(1.0197365,0,0,1,0.77171741,0)" /><g
       id="g2055"
       transform="matrix(1.0197365,0,0,1,13.237027,0.13911915)"><rect
         style="fill:#ffffff;stroke-width:0.264583"
         id="rect2049"
         width="26.217659"
         height="17.932505"
         x="103.13084"
         y="43.596069"
         ry="3.5186045" /><rect
         style="fill:#ffffff;stroke-width:0.264583"
         id="rect2051"
         width="26.217659"
         height="17.932505"
         x="45.691078"
         y="43.596069"
         ry="3.5186045" /><rect
         style="fill:#ffffff;stroke-width:0.264583"
         id="rect2053"
         width="26.217659"
         height="17.932505"
         x="74.410957"
         y="43.596069"
         ry="3.5186045" /></g><rect
       style="fill:#e6e6e6;stroke-width:0.267181"
       id="rect2057"
       width="24.500238"
       height="5.2715492"
       x="21.272516"
       y="61.66769" /><rect
       style="fill:#e6e6e6;stroke-width:0.267181"
       id="rect2059"
       width="24.500238"
       height="5.2715492"
       x="21.272516"
       y="69.704102" /><rect
       style="fill:#e6e6e6;stroke-width:0.267181"
       id="rect2061"
       width="11.288043"
       height="4.3720365"
       x="34.484711"
       y="78.481705"
       ry="2.1860182" /></g></svg>
