<?xml version="1.0" encoding="UTF-8" standalone="no"?>
<!-- Created with Inkscape (http://www.inkscape.org/) -->

<svg
   width="210mm"
   height="210mm"
   viewBox="0 0 210 210"
   version="1.1"
   id="svg5"
   xml:space="preserve"
   sodipodi:docname="site-logo.svg"
   inkscape:version="1.2.2 (b0a8486541, 2022-12-01)"
   inkscape:export-filename="logo.png"
   inkscape:export-xdpi="68.696732"
   inkscape:export-ydpi="68.696732"
   xmlns:inkscape="http://www.inkscape.org/namespaces/inkscape"
   xmlns:sodipodi="http://sodipodi.sourceforge.net/DTD/sodipodi-0.dtd"
   xmlns="http://www.w3.org/2000/svg"
   xmlns:svg="http://www.w3.org/2000/svg"><sodipodi:namedview
     id="namedview7"
     pagecolor="#ffffff"
     bordercolor="#000000"
     borderopacity="0.25"
     inkscape:showpageshadow="2"
     inkscape:pageopacity="0"
     inkscape:pagecheckerboard="true"
     inkscape:deskcolor="#d1d1d1"
     inkscape:document-units="mm"
     showgrid="false"
     inkscape:zoom="0.93664662"
     inkscape:cx="321.35919"
     inkscape:cy="360.328"
     inkscape:window-width="1452"
     inkscape:window-height="752"
     inkscape:window-x="104"
     inkscape:window-y="114"
     inkscape:window-maximized="0"
     inkscape:current-layer="g5925"><inkscape:grid
       type="xygrid"
       id="grid9" /><inkscape:page
       x="0"
       y="0"
       width="210"
       height="210"
       id="page3787" /><inkscape:page
       x="220"
       y="0"
       width="4.2333331"
       height="4.2333331"
       id="page3789" /></sodipodi:namedview><defs
     id="defs2"><clipPath
       clipPathUnits="userSpaceOnUse"
       id="clipPath1159"><path
         id="path1161"
         style="fill:#ffffff;stroke-width:0.269624"
         d="M 17.412471,29.104167 H 143.98336 c 2.31755,0 4.18331,1.865754 4.18331,4.183303 v 78.94589 c 0,2.31755 -1.86576,4.18331 -4.18331,4.18331 H 17.412471 c -2.317551,0 -4.183304,-1.86576 -4.183304,-4.18331 V 33.28747 c 0,-2.317549 1.865753,-4.183303 4.183304,-4.183303 z" /></clipPath><clipPath
       clipPathUnits="userSpaceOnUse"
       id="clipPath5663"><path
         id="path5665"
         style="fill:#ffffff;stroke-width:0.285181"
         d="m 23.52705,30.761885 113.96299,0.44579 c 2.77743,0.01087 5.01348,1.741643 5.01348,3.90503 v 73.694435 c 0,2.16338 -2.23605,3.91589 -5.01348,3.90502 L 23.52705,112.26637 c -2.777436,-0.0109 -5.013482,-1.74164 -5.013482,-3.90503 V 34.666915 c 0,-2.163387 2.236046,-3.915894 5.013482,-3.90503 z"
         sodipodi:nodetypes="sssssssss" /></clipPath><clipPath
       clipPathUnits="userSpaceOnUse"
       id="clipPath5677"><rect
         style="fill:#ffffff;fill-opacity:1;stroke-width:0.224289"
         id="rect5679"
         width="102.36213"
         height="77.638618"
         x="13.949299"
         y="30.626863"
         ry="7.6768155" /></clipPath></defs><g
     inkscape:label="old"
     inkscape:groupmode="layer"
     id="layer1"
     style="display:none"><g
       id="g1947"
       transform="matrix(1.0787462,0,0,1.1316017,-5.708365,-5.9880587)"
       inkscape:label="navy"><g
         id="g768"
         transform="translate(0,0.11334231)"><rect
           style="fill:#ffffff;stroke-width:0.240227"
           id="rect429"
           width="113.77083"
           height="6.614584"
           x="34.395836"
           y="25.069271"
           ry="0"
           rx="0" /><path
           id="rect649"
           style="fill:#ffffff;stroke-width:0.341575"
           d="m 17.197916,28.376563 5.291667,-3.307293 v 6.614584 z"
           sodipodi:nodetypes="ccccc" /><path
           id="path748"
           style="fill:#ffffff;stroke-width:0.341575"
           d="M 30.427082,28.376563 25.135416,25.06927 v 6.614584 z"
           sodipodi:nodetypes="ccccc" /></g><g
         id="g1144"><g
           id="g1124"><path
             id="rect115"
             style="fill:#162d4f;fill-opacity:1;stroke-width:0.264583"
             d="M 18.954964,5.2916665 H 141.90606 c 7.56947,0 13.6633,6.0938305 13.6633,13.6632975 v 91.632986 c 0,7.56947 -6.09383,13.6633 -13.6633,13.6633 H 18.954964 c -7.569467,0 -13.6632975,-6.09383 -13.6632975,-13.6633 V 18.954964 c 0,-7.569467 6.0938305,-13.6632975 13.6632975,-13.6632975 z" /><path
             id="path849"
             style="fill:#ffffff;stroke-width:0.237717"
             d="m 23.8125,18.520833 c 0,2.922507 -2.36916,5.291667 -5.291667,5.291667 -2.922507,0 -5.291667,-2.36916 -5.291667,-5.291667 0,-2.922507 4.228244,-3.96875 5.291667,-7.9375 1.063424,3.96875 5.291667,5.014993 5.291667,7.9375 z"
             sodipodi:nodetypes="ssscs" /><g
             id="g974"
             transform="matrix(1.2999995,0,0,1.8199998,-2.9765489,-12.77937)"><path
               id="rect956"
               style="fill:#ffffff;stroke-width:0.264582"
               d="m 25.135416,13.229167 h 9.260418 v 1.322916 h -9.260418 z" /><path
               id="rect962"
               style="fill:#ffffff;stroke-width:0.264582"
               d="m 25.135416,15.875 h 9.260418 v 1.322916 h -9.260418 z" /><path
               id="rect964"
               style="fill:#ffffff;stroke-width:0.264582"
               d="m 25.135416,18.520834 h 9.260418 v 1.322916 h -9.260418 z" /></g><g
             id="g982"
             transform="matrix(1.0011125,0.75891011,-1.2114473,1.2292068,-29.146243,-137.37082)"
             style="fill:#ff0000"><path
               id="rect978"
               style="fill:#ff0000;stroke-width:0.313059"
               d="m 184.41463,7.937499 h 1.85208 v 6.614583 h -1.85208 z" /><path
               id="path4155"
               style="fill:#ff0000;stroke-width:0.313059"
               d="m 180.89326,10.111586 -0.26808,1.308982 9.1629,0.957427 0.26808,-1.308982 z" /></g></g></g><path
         id="rect1043"
         style="fill:#ffffff;stroke-width:0.269623"
         d="M 17.412471,29.104166 H 143.98336 c 2.31755,0 4.18331,1.865754 4.18331,4.183304 v 78.94589 c 0,2.31755 -1.86576,4.18331 -4.18331,4.18331 H 17.412471 c -2.317551,0 -4.183304,-1.86576 -4.183304,-4.18331 V 33.28747 c 0,-2.31755 1.865753,-4.183304 4.183304,-4.183304 z" /><rect
         style="fill:#aaccff;stroke-width:0.264583"
         id="rect1097"
         width="143.35075"
         height="27.518829"
         x="9.4461088"
         y="25.182611"
         ry="0.066146873"
         clip-path="url(#clipPath1159)" /><g
         id="g1178"
         transform="translate(12.22405,0.13911915)"><rect
           style="fill:#ffffff;stroke-width:0.264583"
           id="rect1167"
           width="26.217659"
           height="17.932505"
           x="103.13084"
           y="43.596069"
           ry="3.5186045" /><rect
           style="fill:#ffffff;stroke-width:0.264583"
           id="rect1171"
           width="26.217659"
           height="17.932505"
           x="45.691078"
           y="43.596069"
           ry="3.5186045" /><rect
           style="fill:#ffffff;stroke-width:0.264583"
           id="rect1173"
           width="26.217659"
           height="17.932505"
           x="74.410957"
           y="43.596069"
           ry="3.5186045" /></g><rect
         style="fill:#e6e6e6;stroke-width:0.264583"
         id="rect1234"
         width="24.026049"
         height="5.2715492"
         x="20.104017"
         y="61.66769" /><rect
         style="fill:#e6e6e6;stroke-width:0.264583"
         id="rect1236"
         width="24.026049"
         height="5.2715492"
         x="20.104017"
         y="69.704102" /><rect
         style="fill:#e6e6e6;stroke-width:0.264583"
         id="rect1238"
         width="11.069569"
         height="4.3720365"
         x="33.060497"
         y="78.481705"
         ry="2.1860182" /></g><g
       id="g5015"
       transform="matrix(1.0787462,0,0,1.1316017,-8.8788404,4.8116506)"
       inkscape:label="green"><g
         id="g2005"
         transform="translate(25.135417,23.765304)"><g
           id="g1985"><g
             id="g1983"><path
               id="path1965"
               style="fill:#2ca075;fill-opacity:1;stroke-width:0.264583"
               d="M 18.954964,5.2916665 H 141.90606 c 7.56947,0 13.6633,6.0938305 13.6633,13.6632975 v 91.632986 c 0,7.56947 -6.09383,13.6633 -13.6633,13.6633 H 18.954964 c -7.569467,0 -13.6632975,-6.09383 -13.6632975,-13.6633 V 18.954964 c 0,-7.569467 6.0938305,-13.6632975 13.6632975,-13.6632975 z" /><path
               id="path1967"
               style="fill:#ffffff;stroke-width:0.237717"
               d="m 23.8125,18.520833 c 0,2.922507 -2.36916,5.291667 -5.291667,5.291667 -2.922507,0 -5.291667,-2.36916 -5.291667,-5.291667 0,-2.922507 4.228244,-3.96875 5.291667,-7.9375 1.063424,3.96875 5.291667,5.014993 5.291667,7.9375 z"
               sodipodi:nodetypes="ssscs" /><g
               id="g1975"
               transform="matrix(1.2999995,0,0,1.8199998,-2.9765489,-12.77937)"><path
                 id="path1969"
                 style="fill:#ffffff;stroke-width:0.264582"
                 d="m 25.135416,13.229167 h 9.260418 v 1.322916 h -9.260418 z" /><path
                 id="path1971"
                 style="fill:#ffffff;stroke-width:0.264582"
                 d="m 25.135416,15.875 h 9.260418 v 1.322916 h -9.260418 z" /><path
                 id="path1973"
                 style="fill:#ffffff;stroke-width:0.264582"
                 d="m 25.135416,18.520834 h 9.260418 v 1.322916 h -9.260418 z" /></g></g></g><path
           id="path1987"
           style="fill:#ffffff;stroke-width:0.269623"
           d="M 17.412471,29.104166 H 143.98336 c 2.31755,0 4.18331,1.865754 4.18331,4.183304 v 78.94589 c 0,2.31755 -1.86576,4.18331 -4.18331,4.18331 H 17.412471 c -2.317551,0 -4.183304,-1.86576 -4.183304,-4.18331 V 33.28747 c 0,-2.31755 1.865753,-4.183304 4.183304,-4.183304 z" /><rect
           style="fill:#aaccff;stroke-width:0.264583"
           id="rect1989"
           width="143.35075"
           height="27.518829"
           x="9.4461088"
           y="25.182611"
           ry="0.066146873"
           clip-path="url(#clipPath1159)" /><g
           id="g1997"
           transform="translate(12.22405,0.13911915)"><rect
             style="fill:#ffffff;stroke-width:0.264583"
             id="rect1991"
             width="26.217659"
             height="17.932505"
             x="103.13084"
             y="43.596069"
             ry="3.5186045" /><rect
             style="fill:#ffffff;stroke-width:0.264583"
             id="rect1993"
             width="26.217659"
             height="17.932505"
             x="45.691078"
             y="43.596069"
             ry="3.5186045" /><rect
             style="fill:#ffffff;stroke-width:0.264583"
             id="rect1995"
             width="26.217659"
             height="17.932505"
             x="74.410957"
             y="43.596069"
             ry="3.5186045" /></g><rect
           style="fill:#e6e6e6;stroke-width:0.264583"
           id="rect1999"
           width="24.026049"
           height="5.2715492"
           x="20.104017"
           y="61.66769" /><rect
           style="fill:#e6e6e6;stroke-width:0.264583"
           id="rect2001"
           width="24.026049"
           height="5.2715492"
           x="20.104017"
           y="69.704102" /><rect
           style="fill:#e6e6e6;stroke-width:0.264583"
           id="rect2003"
           width="11.069569"
           height="4.3720365"
           x="33.060497"
           y="78.481705"
           ry="2.1860182" /></g><path
         d="m 171.91068,44.536038 -4.34933,-7.494371 c -0.60383,-1.040317 -1.59214,-1.040317 -2.19677,0 l -4.35017,7.494371 c -0.6038,1.04102 0.006,1.891742 1.35651,1.891742 h 8.18325 c 1.34996,0 1.96031,-0.850722 1.35651,-1.891742 z m -6.26712,-5.861298 h 1.63797 v 3.52411 h -1.63797 z m 1.84249,6.072038 c 0,0.242468 -0.22975,0.440515 -0.51133,0.440515 h -1.02271 c -0.28232,0 -0.51217,-0.198061 -0.51217,-0.440515 v -0.873272 c 0,-0.242468 0.22976,-0.440515 0.51217,-0.440515 h 1.02271 c 0.28139,0 0.51133,0.198061 0.51133,0.440515 z"
         id="path3777"
         style="fill:#ffff00;stroke-width:0.759379" /></g></g><g
     inkscape:groupmode="layer"
     id="layer4"
     inkscape:label="Layer 2" /><g
     id="g5801"
     transform="matrix(1.2392504,0,0,1.3256271,2.7028154,3.3316761)"
     style="display:inline"
     inkscape:label="ERR"><g
       id="g5767"
       transform="matrix(1.0197365,0,0,1,0.77171741,0)"
       style="display:inline"
       inkscape:label="Chrome"><g
         id="g5765"><rect
           style="display:inline;fill:#1f3f70;fill-opacity:1;stroke-width:0.165343"
           id="rect5905"
           width="92.700203"
           height="88.370316"
           x="5.2916665"
           y="5.2915459"
           ry="10.099261" /><path
           id="path5755"
           style="display:inline;fill:#ffffff;stroke-width:0.237717"
           d="m 23.8125,18.520833 c 0,2.922507 -2.36916,5.291667 -5.291667,5.291667 -2.922507,0 -5.291667,-2.36916 -5.291667,-5.291667 0,-2.922507 4.228244,-3.96875 5.291667,-7.9375 1.063424,3.96875 5.291667,5.014993 5.291667,7.9375 z"
           sodipodi:nodetypes="ssscs" /><g
           id="g5763"
           transform="matrix(1.2999995,0,0,1.8199998,-2.9765489,-12.77937)"><path
             id="path5757"
             style="fill:#ffffff;stroke-width:0.264582"
             d="m 25.135416,13.229167 h 9.260418 v 1.322916 h -9.260418 z" /><path
             id="path5759"
             style="fill:#ffffff;stroke-width:0.264582"
             d="m 25.135416,15.875 h 9.260418 v 1.322916 h -9.260418 z" /><path
             id="path5761"
             style="fill:#ffffff;stroke-width:0.264582"
             d="m 25.135416,18.520834 h 9.260418 v 1.322916 h -9.260418 z" /></g></g><g
         id="g5775"
         transform="matrix(1.2588368,0.9542823,-1.5233197,1.5456512,-131.36008,-176.93086)"
         style="display:inline;fill:#ff0000"
         inkscape:label="ERROR"><path
           id="path5771"
           style="fill:#ff0000;stroke-width:0.313059"
           d="m 184.41463,7.937499 h 1.85208 v 6.614583 h -1.85208 z" /><path
           id="path5773"
           style="fill:#ff0000;stroke-width:0.313059"
           d="m 180.89326,10.111586 -0.26808,1.308982 9.1629,0.957427 0.26808,-1.308982 z" /></g></g><path
       d="m 92.183758,20.155241 -4.43517,-7.494371 c -0.61574,-1.040317 -1.62356,-1.040317 -2.24012,0 l -4.43603,7.494371 c -0.61572,1.04102 0.006,1.891742 1.38328,1.891742 h 8.34476 c 1.3766,0 1.999,-0.850722 1.38328,-1.891742 z m -6.39081,-5.861298 h 1.6703 v 3.52411 h -1.6703 z m 1.87886,6.072038 c 0,0.242468 -0.23429,0.440515 -0.52143,0.440515 h -1.04289 c -0.28789,0 -0.52228,-0.198061 -0.52228,-0.440515 v -0.873272 c 0,-0.242468 0.2343,-0.440515 0.52228,-0.440515 h 1.04289 c 0.28695,0 0.52143,0.198061 0.52143,0.440515 z"
       id="path5769"
       style="display:none;fill:#ffff00;stroke-width:0.766836"
       inkscape:label="WARN" /><g
       id="g5793"
       transform="matrix(0.77004088,0,0,0.71966772,3.2796722,8.1588376)"
       inkscape:label="web"><rect
         style="fill:#ffffff;fill-opacity:1;stroke-width:0.224289"
         id="rect5777"
         width="102.36213"
         height="77.638618"
         x="13.949299"
         y="30.626863"
         ry="7.6768155" /><rect
         style="fill:#aaccff;fill-opacity:1;stroke-width:0.224289"
         id="rect5779"
         width="107.72643"
         height="34.828934"
         x="11.400962"
         y="22.583488"
         ry="0"
         clip-path="url(#clipPath5677)" /><rect
         style="fill:#aaccff;fill-opacity:1;stroke-width:0.224289"
         id="rect5781"
         width="107.72643"
         height="34.828934"
         x="11.400962"
         y="22.583488"
         ry="0"
         clip-path="url(#clipPath5677)" /><rect
         style="fill:#ffffff;fill-opacity:1;stroke-width:0.134664"
         id="rect5783"
         width="28.845886"
         height="19.386772"
         x="83.192451"
         y="47.925545"
         ry="3.6033337" /><rect
         style="fill:#ffffff;fill-opacity:1;stroke-width:0.134664"
         id="rect5785"
         width="28.845886"
         height="19.386772"
         x="50.707424"
         y="47.925545"
         ry="3.6033337" /><rect
         style="fill:#e6e6e6;stroke-width:0.363272"
         id="rect5787"
         width="29.12047"
         height="8.1990595"
         x="18.936251"
         y="66.909622" /><rect
         style="fill:#e6e6e6;stroke-width:0.363272"
         id="rect5789"
         width="29.12047"
         height="8.1990595"
         x="18.936251"
         y="79.747818" /><rect
         style="fill:#e6e6e6;stroke-width:0.413033"
         id="rect5791"
         width="14.384661"
         height="8.1990614"
         x="33.672058"
         y="92.586014"
         ry="2.3335428" /></g><g
       id="g5799"
       transform="matrix(1.1311389,0.95878557,-1.3687924,1.5529451,-107.59427,-177.71299)"
       style="display:none"
       inkscape:label="OK"><path
         id="path5795"
         style="fill:#00ff00;stroke-width:0.313059"
         d="m 180.71045,13.229166 h 5.55625 v 1.322917 h -5.55625 z" /><path
         id="path5797"
         style="fill:#00ff00;stroke-width:0.313059"
         d="m 184.41463,7.937499 h 1.85208 v 6.614583 h -1.85208 z" /></g></g><g
     id="g5961"
     transform="matrix(1.2392504,0,0,1.3256271,38.783487,39.412343)"
     style="display:inline"
     inkscape:label="WARN"><g
       id="g5927"
       transform="matrix(1.0197365,0,0,1,0.77171741,0)"
       style="display:inline"
       inkscape:label="Chrome"><g
         id="g5925"><rect
           style="display:inline;fill:#00a93d;fill-opacity:1;stroke-width:0.165343"
           id="rect5913"
           width="92.700203"
           height="88.370316"
           x="5.2916665"
           y="5.2915459"
           ry="10.099261" /><path
           id="path5915"
           style="display:inline;fill:#ffffff;stroke-width:0.237717"
           d="m 23.8125,18.520833 c 0,2.922507 -2.36916,5.291667 -5.291667,5.291667 -2.922507,0 -5.291667,-2.36916 -5.291667,-5.291667 0,-2.922507 4.228244,-3.96875 5.291667,-7.9375 1.063424,3.96875 5.291667,5.014993 5.291667,7.9375 z"
           sodipodi:nodetypes="ssscs" /><g
           id="g5923"
           transform="matrix(1.2999995,0,0,1.8199998,-2.9765489,-12.77937)"><path
             id="path5917"
             style="fill:#ffffff;stroke-width:0.264582"
             d="m 25.135416,13.229167 h 9.260418 v 1.322916 h -9.260418 z" /><path
             id="path5919"
             style="fill:#ffffff;stroke-width:0.264582"
             d="m 25.135416,15.875 h 9.260418 v 1.322916 h -9.260418 z" /><path
             id="path5921"
             style="fill:#ffffff;stroke-width:0.264582"
             d="m 25.135416,18.520834 h 9.260418 v 1.322916 h -9.260418 z" /></g></g></g><path
       d="m 92.183758,20.155241 -4.43517,-7.494371 c -0.61574,-1.040317 -1.62356,-1.040317 -2.24012,0 l -4.43603,7.494371 c -0.61572,1.04102 0.006,1.891742 1.38328,1.891742 h 8.34476 c 1.3766,0 1.999,-0.850722 1.38328,-1.891742 z m -6.39081,-5.861298 h 1.6703 v 3.52411 h -1.6703 z m 1.87886,6.072038 c 0,0.242468 -0.23429,0.440515 -0.52143,0.440515 h -1.04289 c -0.28789,0 -0.52228,-0.198061 -0.52228,-0.440515 v -0.873272 c 0,-0.242468 0.2343,-0.440515 0.52228,-0.440515 h 1.04289 c 0.28695,0 0.52143,0.198061 0.52143,0.440515 z"
       id="path5929"
       style="display:inline;fill:#ffff00;stroke-width:0.766836"
       inkscape:label="WARN" /><g
       id="g5935"
       transform="matrix(1.020871,0.75891011,-1.235357,1.2292068,-88.799709,-135.95825)"
       style="display:none;fill:#ff0000"
       inkscape:label="ERROR"><g
         id="g6019"
         transform="matrix(1.3020543,0,0,1.3020543,-57.646515,-3.5411351)"><g
           id="g6014"><path
             id="path5931"
             style="fill:#ff0000;stroke-width:0.313059"
             d="m 184.41463,7.937499 h 1.85208 v 6.614583 h -1.85208 z" /></g><path
           id="path5933"
           style="fill:#ff0000;stroke-width:0.313059"
           d="m 180.89326,10.111586 -0.26808,1.308982 9.1629,0.957427 0.26808,-1.308982 z" /></g></g><g
       id="g5953"
       transform="matrix(0.77004088,0,0,0.71966772,3.2796722,8.1588376)"
       inkscape:label="web"><rect
         style="fill:#ffffff;fill-opacity:1;stroke-width:0.224289"
         id="rect5937"
         width="102.36213"
         height="77.638618"
         x="13.949299"
         y="30.626863"
         ry="7.6768155" /><rect
         style="fill:#aaccff;fill-opacity:1;stroke-width:0.224289"
         id="rect5939"
         width="107.72643"
         height="34.828934"
         x="11.400962"
         y="22.583488"
         ry="0"
         clip-path="url(#clipPath5677)" /><rect
         style="fill:#aaccff;fill-opacity:1;stroke-width:0.224289"
         id="rect5941"
         width="107.72643"
         height="34.828934"
         x="11.400962"
         y="22.583488"
         ry="0"
         clip-path="url(#clipPath5677)" /><rect
         style="fill:#ffffff;fill-opacity:1;stroke-width:0.134664"
         id="rect5943"
         width="28.845886"
         height="19.386772"
         x="83.192451"
         y="47.925545"
         ry="3.6033337" /><rect
         style="fill:#ffffff;fill-opacity:1;stroke-width:0.134664"
         id="rect5945"
         width="28.845886"
         height="19.386772"
         x="50.707424"
         y="47.925545"
         ry="3.6033337" /><rect
         style="fill:#e6e6e6;stroke-width:0.363272"
         id="rect5947"
         width="29.12047"
         height="8.1990595"
         x="18.936251"
         y="66.909622" /><rect
         style="fill:#e6e6e6;stroke-width:0.363272"
         id="rect5949"
         width="29.12047"
         height="8.1990595"
         x="18.936251"
         y="79.747818" /><rect
         style="fill:#e6e6e6;stroke-width:0.413033"
         id="rect5951"
         width="14.384661"
         height="8.1990614"
         x="33.672058"
         y="92.586014"
         ry="2.3335428" /></g><g
       id="g5959"
       transform="matrix(1.1311389,0.95878557,-1.3687924,1.5529451,-107.59427,-177.71299)"
       style="display:none"
       inkscape:label="OK"><path
         id="path5955"
         style="fill:#00ff00;stroke-width:0.313059"
         d="m 180.71045,13.229166 h 5.55625 v 1.322917 h -5.55625 z" /><path
         id="path5957"
         style="fill:#00ff00;stroke-width:0.313059"
         d="m 184.41463,7.937499 h 1.85208 v 6.614583 h -1.85208 z" /></g></g><g
     id="g6011"
     transform="matrix(1.2392504,0,0,1.3256271,74.86416,75.493009)"
     style="display:inline"
     inkscape:label="OK"><g
       id="g5977"
       transform="matrix(1.0197365,0,0,1,0.77171741,0)"
       style="display:inline"
       inkscape:label="Chrome"><g
         id="g5975"><rect
           style="display:inline;fill:#3479bc;fill-opacity:1;stroke-width:0.165343"
           id="rect5963"
           width="92.700203"
           height="88.370316"
           x="5.2916665"
           y="5.2915459"
           ry="10.099261" /><path
           id="path5965"
           style="display:inline;fill:#ffffff;stroke-width:0.237717"
           d="m 23.8125,18.520833 c 0,2.922507 -2.36916,5.291667 -5.291667,5.291667 -2.922507,0 -5.291667,-2.36916 -5.291667,-5.291667 0,-2.922507 4.228244,-3.96875 5.291667,-7.9375 1.063424,3.96875 5.291667,5.014993 5.291667,7.9375 z"
           sodipodi:nodetypes="ssscs" /><g
           id="g5973"
           transform="matrix(1.2999995,0,0,1.8199998,-2.9765489,-12.77937)"><path
             id="path5967"
             style="fill:#ffffff;stroke-width:0.264582"
             d="m 25.135416,13.229167 h 9.260418 v 1.322916 h -9.260418 z" /><path
             id="path5969"
             style="fill:#ffffff;stroke-width:0.264582"
             d="m 25.135416,15.875 h 9.260418 v 1.322916 h -9.260418 z" /><path
             id="path5971"
             style="fill:#ffffff;stroke-width:0.264582"
             d="m 25.135416,18.520834 h 9.260418 v 1.322916 h -9.260418 z" /></g></g></g><path
       d="m 92.183758,20.155241 -4.43517,-7.494371 c -0.61574,-1.040317 -1.62356,-1.040317 -2.24012,0 l -4.43603,7.494371 c -0.61572,1.04102 0.006,1.891742 1.38328,1.891742 h 8.34476 c 1.3766,0 1.999,-0.850722 1.38328,-1.891742 z m -6.39081,-5.861298 h 1.6703 v 3.52411 h -1.6703 z m 1.87886,6.072038 c 0,0.242468 -0.23429,0.440515 -0.52143,0.440515 h -1.04289 c -0.28789,0 -0.52228,-0.198061 -0.52228,-0.440515 v -0.873272 c 0,-0.242468 0.2343,-0.440515 0.52228,-0.440515 h 1.04289 c 0.28695,0 0.52143,0.198061 0.52143,0.440515 z"
       id="path5979"
       style="display:none;fill:#ffff00;stroke-width:0.766836"
       inkscape:label="WARN" /><g
       id="g5985"
       transform="matrix(1.020871,0.75891011,-1.235357,1.2292068,-88.799709,-135.95825)"
       style="display:none;fill:#ff0000"
       inkscape:label="ERROR"><path
         id="path5981"
         style="fill:#ff0000;stroke-width:0.313059"
         d="m 184.41463,7.937499 h 1.85208 v 6.614583 h -1.85208 z" /><path
         id="path5983"
         style="fill:#ff0000;stroke-width:0.313059"
         d="m 180.89326,10.111586 -0.26808,1.308982 9.1629,0.957427 0.26808,-1.308982 z" /></g><g
       id="g6003"
       transform="matrix(0.77004088,0,0,0.71966772,3.2796722,8.1588376)"
       inkscape:label="web"><rect
         style="fill:#ffffff;fill-opacity:1;stroke-width:0.224289"
         id="rect5987"
         width="102.36213"
         height="77.638618"
         x="13.949299"
         y="30.626863"
         ry="7.6768155" /><rect
         style="fill:#aaccff;fill-opacity:1;stroke-width:0.224289"
         id="rect5989"
         width="107.72643"
         height="34.828934"
         x="11.400962"
         y="22.583488"
         ry="0"
         clip-path="url(#clipPath5677)" /><rect
         style="fill:#aaccff;fill-opacity:1;stroke-width:0.224289"
         id="rect5991"
         width="107.72643"
         height="34.828934"
         x="11.400962"
         y="22.583488"
         ry="0"
         clip-path="url(#clipPath5677)" /><rect
         style="fill:#ffffff;fill-opacity:1;stroke-width:0.134664"
         id="rect5993"
         width="28.845886"
         height="19.386772"
         x="83.192451"
         y="47.925545"
         ry="3.6033337" /><rect
         style="fill:#ffffff;fill-opacity:1;stroke-width:0.134664"
         id="rect5995"
         width="28.845886"
         height="19.386772"
         x="50.707424"
         y="47.925545"
         ry="3.6033337" /><rect
         style="fill:#e6e6e6;stroke-width:0.363272"
         id="rect5997"
         width="29.12047"
         height="8.1990595"
         x="18.936251"
         y="66.909622" /><rect
         style="fill:#e6e6e6;stroke-width:0.363272"
         id="rect5999"
         width="29.12047"
         height="8.1990595"
         x="18.936251"
         y="79.747818" /><rect
         style="fill:#e6e6e6;stroke-width:0.413033"
         id="rect6001"
         width="14.384661"
         height="8.1990614"
         x="33.672058"
         y="92.586014"
         ry="2.3335428" /></g><g
       id="g6009"
       transform="matrix(1.1311389,0.95878557,-1.3687924,1.5529451,-107.59427,-177.71299)"
       style="display:inline"
       inkscape:label="OK"><path
         id="path6005"
         style="fill:#00ff00;stroke-width:0.313059"
         d="m 180.71045,13.229166 h 5.55625 v 1.322917 h -5.55625 z" /><path
         id="path6007"
         style="fill:#00ff00;stroke-width:0.313059"
         d="m 184.41463,7.937499 h 1.85208 v 6.614583 h -1.85208 z" /></g></g></svg>
